<?xml version="1.0" encoding="UTF-8" standalone="no"?>
<!-- Created with Inkscape (http://www.inkscape.org/) -->

<svg
   xmlns:dc="http://purl.org/dc/elements/1.1/"
   xmlns:cc="http://creativecommons.org/ns#"
   xmlns:rdf="http://www.w3.org/1999/02/22-rdf-syntax-ns#"
   xmlns:svg="http://www.w3.org/2000/svg"
   xmlns="http://www.w3.org/2000/svg"
   xmlns:sodipodi="http://sodipodi.sourceforge.net/DTD/sodipodi-0.dtd"
   xmlns:inkscape="http://www.inkscape.org/namespaces/inkscape"
   width="2160"
   height="1620"
   id="svg3914"
   version="1.1"
   inkscape:version="0.48.2 r9819"
   sodipodi:docname="house_paper.svg">
  <defs
     id="defs3916" />
  <sodipodi:namedview
     id="base"
     pagecolor="#ffffff"
     bordercolor="#666666"
     borderopacity="1.0"
     inkscape:pageopacity="0.0"
     inkscape:pageshadow="2"
     inkscape:zoom="0.35"
     inkscape:cx="687.26953"
     inkscape:cy="1083.1154"
     inkscape:document-units="mm"
     inkscape:current-layer="layer1"
     showgrid="true"
     units="mm"
     inkscape:window-width="1920"
     inkscape:window-height="1058"
     inkscape:window-x="1912"
     inkscape:window-y="-8"
     inkscape:window-maximized="1"
     inkscape:object-nodes="true"
     inkscape:snap-grids="false"
     inkscape:object-paths="false">
    <inkscape:grid
       type="xygrid"
       id="grid3922"
       empspacing="4"
       visible="true"
       enabled="true"
       snapvisiblegridlinesonly="true"
       units="mm"
       spacingx="0.5mm"
       spacingy="0.5mm"
       color="#0000ff"
       opacity="0.03921569"
       empcolor="#0000ff"
       empopacity="0.07843137" />
  </sodipodi:namedview>
  <metadata
     id="metadata3919">
    <rdf:RDF>
      <cc:Work
         rdf:about="">
        <dc:format>image/svg+xml</dc:format>
        <dc:type
           rdf:resource="http://purl.org/dc/dcmitype/StillImage" />
        <dc:title />
      </cc:Work>
    </rdf:RDF>
  </metadata>
  <g
     inkscape:label="Layer 1"
     inkscape:groupmode="layer"
     id="layer1"
     transform="translate(0,567.64025)">
    <g
       transform="matrix(3.5433067,0,0,3.5433067,524.40945,-496.58983)"
       id="face0"
       stroke-miterlimit="4"
       style="fill:none;stroke:#000000;stroke-width:0.0508;stroke-linecap:round;stroke-linejoin:round;stroke-miterlimit:4;stroke-opacity:1;stroke-dasharray:none" />
    <g
       id="face1"
       stroke-miterlimit="4"
       style="fill:none;stroke:#000000;stroke-width:0.0508;stroke-linecap:round;stroke-linejoin:round;stroke-miterlimit:4;stroke-opacity:1;stroke-dasharray:none"
       transform="matrix(0,3.5433067,-3.5433067,0,663.23693,-468.61875)">
      <path
         id="line22"
         style="stroke:#000000;stroke-opacity:1"
         d="m 10,102.296 16.022247,0 M 10,61.147999 10,102.296 M 26.022247,61.147999 10,61.147999 m 32.574002,1e-6 -16.551756,0 m 16.551756,41.148 0,-41.148 m -16.551756,41.148 16.551756,0"
         inkscape:connector-curvature="0"
         sodipodi:nodetypes="cccccccccccc" />
      <path
         style="fill:none;stroke:#0000ff;stroke-width:0.18000001;stroke-linecap:butt;stroke-linejoin:miter;stroke-miterlimit:4;stroke-opacity:1;stroke-dasharray:none"
         d="m 559.84252,106.48349 0,145.79998"
         id="path4162"
         inkscape:connector-curvature="0"
         transform="matrix(0.28222225,0,0,0.28222225,-131.97777,31.09599)" />
    </g>
    <g
       transform="matrix(1.6641639,3.1281913,-3.1281913,1.6641639,705.46188,-803.77887)"
       id="face2"
       stroke-miterlimit="4"
       style="fill:none;stroke:#000000;stroke-width:0.0508;stroke-linecap:round;stroke-linejoin:round;stroke-miterlimit:4;stroke-opacity:1;stroke-dasharray:none"
       inkscape:transform-center-x="-29.803472"
       inkscape:transform-center-y="-41.46197" />
    <g
       transform="matrix(3.5433067,0,0,3.5433067,214.53889,-1117.093)"
       id="face3"
       stroke-miterlimit="4"
       style="fill:none;stroke:#000000;stroke-width:0.0508;stroke-linecap:round;stroke-linejoin:round;stroke-miterlimit:4;stroke-opacity:1;stroke-dasharray:none" />
    <g
       id="face4"
       stroke-miterlimit="4"
       style="fill:none;stroke:#000000;stroke-width:0.0508;stroke-linecap:round;stroke-linejoin:round;stroke-miterlimit:4;stroke-opacity:1;stroke-dasharray:none"
       transform="matrix(3.5433067,0,0,3.5433067,340.12692,-1167.248)" />
    <g
       id="g4164"
       transform="matrix(0,1,-1,0,116.4434,-585.42151)">
      <g
         inkscape:transform-center-y="-17.03228"
         inkscape:transform-center-x="-33.09589"
         transform="matrix(0.28519483,-3.5318107,3.5318107,0.28519483,-601.98304,-268.37195)"
         style="fill:none;stroke:#000000;stroke-width:0.0508;stroke-linecap:round;stroke-linejoin:round;stroke-miterlimit:4;stroke-opacity:1;stroke-dasharray:none"
         stroke-miterlimit="4"
         id="face5">
        <path
           sodipodi:nodetypes="cccccccccc"
           inkscape:connector-curvature="0"
           d="m 11.719381,293.6579 10.729058,-0.0286 22.321812,-1.80249 M 10,293.6579 l 1.719381,0 m 33.05087,-1.83107 9.505845,-19.42725 m 0,0 L 9.9513143,275.97882 10,293.6579"
           style="stroke:#000000"
           id="line68" />
        <path
           transform="matrix(0.0227156,0.28130659,-0.28130659,0.0227156,97.860549,162.54374)"
           inkscape:connector-curvature="0"
           id="path4150"
           d="m 441.46224,303.72622 -65.90227,39.10365"
           style="fill:none;stroke:none" />
        <path
           transform="matrix(0.0227156,0.28130659,-0.28130659,0.0227156,97.860549,162.54374)"
           inkscape:connector-curvature="0"
           id="path4152"
           d="m 441.46225,303.72621 -65.90227,39.10365"
           style="fill:none;stroke:#0000ff;stroke-width:0.18000001;stroke-linecap:butt;stroke-linejoin:miter;stroke-miterlimit:4;stroke-opacity:1;stroke-dasharray:none" />
      </g>
    </g>
    <g
       transform="matrix(5.8990901,0,0,3.543307,220.14365,-357.30043)"
       id="face3-7"
       stroke-miterlimit="4"
       style="fill:none;stroke:#000000;stroke-width:0.0508;stroke-linecap:round;stroke-linejoin:round;stroke-miterlimit:4;stroke-opacity:1;stroke-dasharray:none" />
    <g
       transform="matrix(3.5433071,0,0,3.5433071,-37.821275,67.679866)"
       id="face0-7"
       stroke-miterlimit="4"
       style="fill:none;stroke:#000000;stroke-width:0.0508;stroke-linecap:round;stroke-linejoin:round;stroke-miterlimit:4;stroke-opacity:1;stroke-dasharray:none" />
    <g
       transform="matrix(3.5433071,0,0,3.5433071,-37.821275,67.679866)"
       id="face1-9"
       stroke-miterlimit="4"
       style="fill:none;stroke:#000000;stroke-width:0.0508;stroke-linecap:round;stroke-linejoin:round;stroke-miterlimit:4;stroke-opacity:1;stroke-dasharray:none" />
    <g
       style="fill:none;stroke:#000000;stroke-width:0.0508;stroke-linecap:round;stroke-linejoin:round;stroke-miterlimit:4;stroke-opacity:1;stroke-dasharray:none"
       transform="matrix(3.543307,0,0,3.543307,-94.356235,147.16447)"
       id="face0-2"
       stroke-miterlimit="4" />
    <g
       style="fill:none;stroke:#000000;stroke-width:0.0508;stroke-linecap:round;stroke-linejoin:round;stroke-miterlimit:4;stroke-opacity:1;stroke-dasharray:none"
       transform="matrix(3.543307,0,0,3.543307,-94.356235,111.7314)"
       id="face1-4"
       stroke-miterlimit="4" />
    <g
       style="fill:none;stroke:#000000;stroke-width:0.0508;stroke-linecap:round;stroke-linejoin:round;stroke-miterlimit:4;stroke-opacity:1;stroke-dasharray:none"
       transform="matrix(3.543307,0,0,3.543307,-94.356235,2.3966351)"
       id="face2-0"
       stroke-miterlimit="4" />
    <g
       style="fill:none;stroke:#000000;stroke-width:0.0508;stroke-linecap:round;stroke-linejoin:round;stroke-miterlimit:4;stroke-opacity:1;stroke-dasharray:none"
       transform="matrix(0,3.543307,-3.543307,0,323.53276,-702.61977)"
       id="face3-8"
       stroke-miterlimit="4">
      <g
         id="g4576"
         transform="translate(38.301588,-0.20158731)">
        <path
           sodipodi:nodetypes="cccccccccccccccccccccccccccccccccccccccccccccccccccccccccccccccccccccccccccccccccccccccccccccccccccccccccccccccccccccccccccccccc"
           inkscape:connector-curvature="0"
           d="m -58.923164,790.9173 -5.979137,4.04061 -0.252538,6.81853 6.231675,2.27284 m 0,-70.45814 -6.231675,4.29315 -0.252538,6.06091 6.484213,4.29315 m 75.434962,-9.59645 -8.1780395,-5.55584 0,-51.51778 8.1780395,-7.07106 m 0,117.43023 -7.6729632,7.57614 0,10.60661 7.6729632,4.54568 m 274.201112,-626.56306 8.29224,-0.48913 9.34391,-17.17259 -3.935,-7.81016 m -16.4975,51.66477 9.58344,10.35714 0,88.92858 L 287.91656,320 m 1.78321,18.29945 8.4215,0.70085 13.76333,23.61232 -2.7593,11.80092 m -17.94655,45.1335 8.07894,-1.62857 13.13199,-25.75889 -3.25145,-7.24176 m -59.16613,111.79255 10.14218,8.5863 0,139.90612 -10.14218,12.12183 m 37.87346,-215.16249 6.10883,6.56599 0,98.74241 -6.10883,5.55584 m -8.71101,-97.22718 -4.37306,5.93465 0,85.48416 4.37306,6.56599 m -8.25591,-112.01878 3.25151,9.61456 -10.85914,20.45559 -8.2375,0.23685 m -5.06151,215.78493 15.38514,13.92857 0,91.78572 -15.38514,10 m -36.95608,13.95064 5.99778,9.19251 22.72843,0 4.67196,-9.19251 m -296.669179,-86.18428 5.808377,-7.84817 30.809653,0 5.3033005,7.84817 m -69.4894015,50.74067 -7.913537,-4.16688 0,-20.58186 7.913537,-3.53553 m 30.851067,51.4453 5.682108,9.16385 23.359777,0 5.682108,-9.16385 m 60.735422,12.28258 9.091373,14.05387 107.076165,0 11.11168,-14.05387 M 48.73986,670.75319 l 14.89975,-14.43872 92.6815,0 12.37437,14.43872 m -227.618641,79.4846 -18.9,0 m 0,36.1017 18.9,0 m 56.5349508,-36.1017 0,-18.9 m 0,73.90169 0,-18.89999 m 18.9000062,-36.10171 -18.9000026,0 M 279.13455,560.97379 l 8.711,0 m -3.52899,-360.9895 3.6,-4e-5 M 267.59807,166.27928 249.972,199.98429 M 403.24405,42.97057 370.82017,-17.977748 m 27.6565,63.484511 4.76738,-2.536193 m -135.64598,43.958231 0,79.350479 m 103.2221,-184.257028 -179.26111,95.364955 13.68055,1.716677 5.12466,13.292928 36.87057,5.303301 12.67358,-11.736229 m -9.93642,60.020366 0,54 m -44.46016,-54 44.46016,0 m -44.46016,189.00004 0,-189.00004 m 6e-5,189.00004 0,31.18258 0,36.1017 0,79.4846 m 0,0 0,188.99999 M 398.47667,45.506763 279.13458,108.99475 l 5.2323,0 3.55178,6.8832 m 0,0 9.06619,3.79298 11.11168,21.2132 -3.13879,8.01489 3.34765,6.48753 m -310.6935966,630.95293 18.9000026,0 2e-6,5.58797"
           style="fill:none;stroke:#000000;stroke-width:0.18000001;stroke-linecap:butt;stroke-linejoin:miter;stroke-miterlimit:4;stroke-opacity:1;stroke-dasharray:none"
           transform="matrix(0.28222223,0,0,0.28222223,31.963426,-150.87708)"
           id="path4277" />
        <path
           transform="matrix(0.28222223,0,0,0.28222223,31.963426,-150.87708)"
           inkscape:connector-curvature="0"
           id="path4432"
           d="m 205.23961,79.103887 54.66881,6.86"
           style="fill:none;stroke:#0000ff;stroke-width:0.18000001;stroke-linecap:butt;stroke-linejoin:miter;stroke-miterlimit:4;stroke-opacity:1;stroke-dasharray:none" />
        <path
           transform="matrix(0.28222223,0,0,0.28222223,31.963426,-150.87708)"
           inkscape:connector-curvature="0"
           id="path4436"
           d="M 279.13458,108.99475 267.59807,86.928804"
           style="fill:none;stroke:#0000ff;stroke-width:0.18000001;stroke-miterlimit:4;stroke-opacity:1;stroke-dasharray:none" />
        <path
           transform="matrix(0.28222223,0,0,0.28222223,31.963426,-150.87708)"
           inkscape:connector-curvature="0"
           id="path4438"
           d="M 267.59807,86.928804 259.90842,85.96389"
           style="fill:none;stroke:#000000;stroke-width:0.18000001;stroke-miterlimit:4;stroke-opacity:1;stroke-dasharray:none" />
        <path
           transform="matrix(0.28222223,0,0,0.28222223,31.963426,-150.87708)"
           inkscape:connector-curvature="0"
           id="path4442"
           d="m 287.91866,115.87795 17.03908,33.02107"
           style="fill:none;stroke:#0000ff;stroke-width:0.18000001;stroke-miterlimit:4;stroke-opacity:1;stroke-dasharray:none" />
        <path
           transform="matrix(0.28222223,0,0,0.28222223,31.963426,-150.87708)"
           inkscape:connector-curvature="0"
           id="path4444"
           d="m 287.91656,320 0,-105.71429"
           style="fill:none;stroke:#0000ff;stroke-width:0.18000001;stroke-miterlimit:4;stroke-opacity:1;stroke-dasharray:none" />
        <path
           transform="matrix(0.28222223,0,0,0.28222223,31.963426,-150.87708)"
           inkscape:connector-curvature="0"
           id="path4446"
           d="m 287.91656,199.98425 0,14.30146"
           style="fill:none;stroke:#000000;stroke-width:0.18000001;stroke-miterlimit:4;stroke-opacity:1;stroke-dasharray:none" />
        <path
           transform="matrix(0.28222223,0,0,0.28222223,31.963426,-150.87708)"
           inkscape:connector-curvature="0"
           id="path4448"
           d="m 287.91656,320 0,14.98429"
           style="fill:none;stroke:#000000;stroke-width:0.18000001;stroke-miterlimit:4;stroke-opacity:1;stroke-dasharray:none" />
        <path
           transform="matrix(0.28222223,0,0,0.28222223,31.963426,-150.87708)"
           inkscape:connector-curvature="0"
           id="path4450"
           d="m 284.31656,199.98429 6.39635,-11.89147"
           style="fill:none;stroke:#000000;stroke-width:0.18000001;stroke-miterlimit:4;stroke-opacity:1;stroke-dasharray:none" />
        <path
           transform="matrix(0.28222223,0,0,0.28222223,31.963426,-150.87708)"
           inkscape:connector-curvature="0"
           id="path4452"
           d="m 304.41406,162.62094 3.89133,-7.23439"
           style="fill:none;stroke:#000000;stroke-width:0.18000001;stroke-miterlimit:4;stroke-opacity:1;stroke-dasharray:none" />
        <path
           transform="matrix(0.28222223,0,0,0.28222223,31.963426,-150.87708)"
           inkscape:connector-curvature="0"
           id="path4454"
           d="m 304.41406,162.62094 -13.70115,25.47188"
           style="fill:none;stroke:#0000ff;stroke-width:0.18000001;stroke-miterlimit:4;stroke-opacity:1;stroke-dasharray:none" />
        <path
           transform="matrix(0.28222223,0,0,0.28222223,31.963426,-150.87708)"
           inkscape:connector-curvature="0"
           id="path4462"
           d="m 289.69977,338.29945 19.42553,36.11409"
           style="fill:none;stroke:#0000ff;stroke-width:0.18000001;stroke-miterlimit:4;stroke-opacity:1;stroke-dasharray:none" />
        <path
           transform="matrix(0.28222223,0,0,0.28222223,31.963426,-150.87708)"
           inkscape:connector-curvature="0"
           id="path4464"
           d="m 287.91656,334.98429 1.78321,3.31516"
           style="fill:none;stroke:#000000;stroke-width:0.18000001;stroke-miterlimit:4;stroke-opacity:1;stroke-dasharray:none" />
        <path
           transform="matrix(0.28222223,0,0,0.28222223,31.963426,-150.87708)"
           inkscape:connector-curvature="0"
           id="path4466"
           d="m 309.1253,374.41354 2.78015,5.16847"
           style="fill:none;stroke:#000000;stroke-width:0.18000001;stroke-miterlimit:4;stroke-opacity:1;stroke-dasharray:none" />
        <path
           transform="matrix(0.28222223,0,0,0.28222223,31.963426,-150.87708)"
           inkscape:connector-curvature="0"
           id="path4468"
           d="m 311.90545,379.58201 -2.76722,5.33581"
           style="fill:none;stroke:#000000;stroke-width:0.18000001;stroke-miterlimit:4;stroke-opacity:1;stroke-dasharray:none" />
        <path
           transform="matrix(0.28222223,0,0,0.28222223,31.963426,-150.87708)"
           inkscape:connector-curvature="0"
           id="path4470"
           d="m 291.17875,419.54704 -3.3332,6.42675"
           style="fill:none;stroke:#000000;stroke-width:0.18000001;stroke-miterlimit:4;stroke-opacity:1;stroke-dasharray:none" />
        <path
           transform="matrix(0.28222223,0,0,0.28222223,31.963426,-150.87708)"
           inkscape:connector-curvature="0"
           id="path4472"
           d="m 291.17875,419.54704 17.95948,-34.62922"
           style="fill:none;stroke:#0000ff;stroke-width:0.18000001;stroke-miterlimit:4;stroke-opacity:1;stroke-dasharray:none" />
        <path
           transform="matrix(0.28222223,0,0,0.28222223,31.963426,-150.87708)"
           inkscape:connector-curvature="0"
           id="path4474"
           d="m 279.13468,425.97379 8.71087,0"
           style="fill:none;stroke:#000000;stroke-width:0.18000001;stroke-miterlimit:4;stroke-opacity:1;stroke-dasharray:none" />
        <path
           transform="matrix(0.28222223,0,0,0.28222223,31.963426,-150.87708)"
           inkscape:connector-curvature="0"
           id="path4476"
           d="m 279.13455,425.97379 -8.25591,15.79142"
           style="fill:none;stroke:#000000;stroke-width:0.18000001;stroke-miterlimit:4;stroke-opacity:1;stroke-dasharray:none" />
        <path
           transform="matrix(0.28222223,0,0,0.28222223,31.963426,-150.87708)"
           inkscape:connector-curvature="0"
           id="path4478"
           d="m 255.03351,472.07221 -5.06141,9.68096"
           style="fill:none;stroke:#000000;stroke-width:0.18000001;stroke-miterlimit:4;stroke-opacity:1;stroke-dasharray:none" />
        <path
           transform="matrix(0.28222223,0,0,0.28222223,31.963426,-150.87708)"
           inkscape:connector-curvature="0"
           id="path4480"
           d="m 255.03351,472.07221 15.84513,-30.307"
           style="fill:none;stroke:#0000ff;stroke-width:0.18000001;stroke-miterlimit:4;stroke-opacity:1;stroke-dasharray:none" />
        <path
           transform="matrix(0.28222223,0,0,0.28222223,31.963426,-150.87708)"
           inkscape:connector-curvature="0"
           id="path4482"
           d="m 287.84555,425.97379 10e-6,16.18834"
           style="fill:none;stroke:#000000;stroke-width:0.18000001;stroke-miterlimit:4;stroke-opacity:1;stroke-dasharray:none" />
        <path
           transform="matrix(0.28222223,0,0,0.28222223,31.963426,-150.87708)"
           inkscape:connector-curvature="0"
           id="path4484"
           d="m 279.13468,425.97379 -1.3e-4,29.8254"
           style="fill:none;stroke:#000000;stroke-width:0.18000001;stroke-miterlimit:4;stroke-opacity:1;stroke-dasharray:none" />
        <path
           transform="matrix(0.28222223,0,0,0.28222223,31.963426,-150.87708)"
           inkscape:connector-curvature="0"
           id="path4486"
           d="m 279.13455,553.78399 0,7.1898"
           style="fill:none;stroke:#000000;stroke-width:0.18000001;stroke-miterlimit:4;stroke-opacity:1;stroke-dasharray:none" />
        <path
           transform="matrix(0.28222223,0,0,0.28222223,31.963426,-150.87708)"
           inkscape:connector-curvature="0"
           id="path4488"
           d="m 287.84555,560.97379 10e-6,-7.94742"
           style="fill:none;stroke:#000000;stroke-width:0.18000001;stroke-miterlimit:4;stroke-opacity:1;stroke-dasharray:none" />
        <path
           transform="matrix(0.28222223,0,0,0.28222223,31.963426,-150.87708)"
           inkscape:connector-curvature="0"
           id="path4490"
           d="m 287.84556,442.16213 0,110.86424"
           style="fill:none;stroke:#0000ff;stroke-width:0.18000001;stroke-miterlimit:4;stroke-opacity:1;stroke-dasharray:none" />
        <path
           transform="matrix(0.28222223,0,0,0.28222223,31.963426,-150.87708)"
           inkscape:connector-curvature="0"
           id="path4492"
           d="m 279.13455,455.79919 0,97.9848"
           style="fill:none;stroke:#0000ff;stroke-width:0.18000001;stroke-miterlimit:4;stroke-opacity:1;stroke-dasharray:none" />
        <path
           transform="matrix(0.28222223,0,0,0.28222223,31.963426,-150.87708)"
           inkscape:connector-curvature="0"
           id="path4494"
           d="m 249.9721,657.32462 0,-160.61425"
           style="fill:none;stroke:#0000ff;stroke-width:0.18000001;stroke-miterlimit:4;stroke-opacity:1;stroke-dasharray:none" />
        <path
           transform="matrix(0.28222223,0,0,0.28222223,31.963426,-150.87708)"
           inkscape:connector-curvature="0"
           id="path4496"
           d="m 249.9721,496.71037 0,-14.9572 0,14.9572"
           style="fill:none;stroke:#000000;stroke-width:0.18000001;stroke-miterlimit:4;stroke-opacity:1;stroke-dasharray:none" />
        <path
           transform="matrix(0.28222223,0,0,0.28222223,31.963426,-150.87708)"
           inkscape:connector-curvature="0"
           id="path4498"
           d="m 249.972,670.75318 1e-4,-13.42856"
           style="fill:none;stroke:#000000;stroke-width:0.18000001;stroke-miterlimit:4;stroke-opacity:1;stroke-dasharray:none" />
        <path
           transform="matrix(0.28222223,0,0,0.28222223,31.963426,-150.87708)"
           inkscape:connector-curvature="0"
           id="path4500"
           d="m 249.972,670.75318 0,17.10396"
           style="fill:none;stroke:#000000;stroke-width:0.18000001;stroke-miterlimit:4;stroke-opacity:1;stroke-dasharray:none" />
        <path
           transform="matrix(0.28222223,0,0,0.28222223,31.963426,-150.87708)"
           inkscape:connector-curvature="0"
           id="path4502"
           d="m 249.972,803.57143 0,13.95063"
           style="fill:none;stroke:#000000;stroke-width:0.18000001;stroke-miterlimit:4;stroke-opacity:1;stroke-dasharray:none" />
        <path
           transform="matrix(0.28222223,0,0,0.28222223,31.963426,-150.87708)"
           inkscape:connector-curvature="0"
           id="path4504"
           d="m 249.972,803.57143 0,-115.71429"
           style="fill:none;stroke:#0000ff;stroke-width:0.18000001;stroke-miterlimit:4;stroke-opacity:1;stroke-dasharray:none" />
        <path
           transform="matrix(0.28222223,0,0,0.28222223,31.963426,-150.87708)"
           inkscape:connector-curvature="0"
           id="path4506"
           d="m 213.01592,817.52207 33.39817,0"
           style="fill:none;stroke:#0000ff;stroke-width:0.18000001;stroke-miterlimit:4;stroke-opacity:1;stroke-dasharray:none" />
        <path
           transform="matrix(0.28222223,0,0,0.28222223,31.963426,-150.87708)"
           inkscape:connector-curvature="0"
           id="path4508"
           d="m 249.972,817.52206 -3.55791,10e-6"
           style="fill:none;stroke:#000000;stroke-width:0.18000001;stroke-miterlimit:4;stroke-opacity:1;stroke-dasharray:none" />
        <path
           transform="matrix(0.28222223,0,0,0.28222223,31.963426,-150.87708)"
           inkscape:connector-curvature="0"
           id="path4510"
           d="m 213.01592,817.52207 -7.50407,0"
           style="fill:none;stroke:#000000;stroke-width:0.18000001;stroke-miterlimit:4;stroke-opacity:1;stroke-dasharray:none" />
        <path
           transform="matrix(0.28222223,0,0,0.28222223,31.963426,-150.87708)"
           inkscape:connector-curvature="0"
           id="path4512"
           d="m 249.972,199.98429 34.34456,0"
           style="fill:none;stroke:#0000ff;stroke-width:0.18000001;stroke-miterlimit:4;stroke-opacity:1;stroke-dasharray:none" />
        <path
           transform="matrix(0.28222223,0,0,0.28222223,31.963426,-150.87708)"
           inkscape:connector-curvature="0"
           id="path4514"
           d="m 287.91656,334.98429 -82.40466,0"
           style="fill:none;stroke:#0000ff;stroke-width:0.18000001;stroke-miterlimit:4;stroke-opacity:1;stroke-dasharray:none" />
        <path
           transform="matrix(0.28222223,0,0,0.28222223,31.963426,-150.87708)"
           inkscape:connector-curvature="0"
           id="path4516"
           d="m 249.9721,481.75317 -44.4602,0"
           style="fill:none;stroke:#0000ff;stroke-width:0.18000001;stroke-miterlimit:4;stroke-opacity:1;stroke-dasharray:none" />
        <path
           transform="matrix(0.28222223,0,0,0.28222223,31.963426,-150.87708)"
           inkscape:connector-curvature="0"
           id="path4518"
           d="m 205.5119,670.75316 44.4601,2e-5"
           style="fill:none;stroke:#0000ff;stroke-width:0.18000001;stroke-miterlimit:4;stroke-opacity:1;stroke-dasharray:none" />
        <path
           transform="matrix(0.28222223,0,0,0.28222223,31.963426,-150.87708)"
           inkscape:connector-curvature="0"
           id="path4520"
           d="m 205.51181,670.75318 0,146.76888"
           style="fill:none;stroke:#0000ff;stroke-width:0.18000001;stroke-miterlimit:4;stroke-opacity:1;stroke-dasharray:none" />
        <path
           transform="matrix(0.28222223,0,0,0.28222223,31.963426,-150.87708)"
           inkscape:connector-curvature="0"
           id="path4522"
           d="m 48.739861,670.75319 119.955619,0"
           style="fill:none;stroke:#0000ff;stroke-width:0.18000001;stroke-miterlimit:4;stroke-opacity:1;stroke-dasharray:none" />
        <path
           transform="matrix(0.28222223,0,0,0.28222223,31.963426,-150.87708)"
           inkscape:connector-curvature="0"
           id="path4524"
           d="m 175.76654,817.52207 -127.279217,0"
           style="fill:none;stroke:#0000ff;stroke-width:0.18000001;stroke-miterlimit:4;stroke-opacity:1;stroke-dasharray:none" />
        <path
           transform="matrix(0.28222223,0,0,0.28222223,31.963426,-150.87708)"
           inkscape:connector-curvature="0"
           id="path4526"
           d="m 16.511797,670.75318 32.228064,10e-6"
           style="fill:none;stroke:#000000;stroke-width:0.18000001;stroke-miterlimit:4;stroke-opacity:1;stroke-dasharray:none" />
        <path
           transform="matrix(0.28222223,0,0,0.28222223,31.963426,-150.87708)"
           inkscape:connector-curvature="0"
           id="path4528"
           d="m 168.69548,670.75319 36.81633,-10e-6"
           style="fill:none;stroke:#000000;stroke-width:0.18000001;stroke-miterlimit:4;stroke-opacity:1;stroke-dasharray:none" />
        <path
           transform="matrix(0.28222223,0,0,0.28222223,31.963426,-150.87708)"
           inkscape:connector-curvature="0"
           id="path4530"
           d="m 205.51185,817.52207 -29.74531,0"
           style="fill:none;stroke:#000000;stroke-width:0.18000001;stroke-miterlimit:4;stroke-opacity:1;stroke-dasharray:none" />
        <path
           transform="matrix(0.28222223,0,0,0.28222223,31.963426,-150.87708)"
           inkscape:connector-curvature="0"
           id="path4532"
           d="m 48.487323,817.52207 -31.975526,-10e-6"
           style="fill:none;stroke:#000000;stroke-width:0.18000001;stroke-miterlimit:4;stroke-opacity:1;stroke-dasharray:none" />
        <path
           transform="matrix(0.28222223,0,0,0.28222223,31.963426,-150.87708)"
           inkscape:connector-curvature="0"
           id="path4534"
           d="m 16.511798,670.75318 1e-6,3.74404"
           style="fill:none;stroke:#000000;stroke-width:0.18000001;stroke-miterlimit:4;stroke-opacity:1;stroke-dasharray:none" />
        <path
           transform="matrix(0.28222223,0,0,0.28222223,31.963426,-150.87708)"
           inkscape:connector-curvature="0"
           id="path4536"
           d="m 16.511799,738.6419 -2e-6,11.59588"
           style="fill:none;stroke:#000000;stroke-width:0.18000001;stroke-miterlimit:4;stroke-opacity:1;stroke-dasharray:none" />
        <path
           transform="matrix(0.28222223,0,0,0.28222223,31.963426,-150.87708)"
           inkscape:connector-curvature="0"
           id="path4538"
           d="m 16.511799,814.65588 -1e-6,2.86618"
           style="fill:none;stroke:#000000;stroke-width:0.18000001;stroke-miterlimit:4;stroke-opacity:1;stroke-dasharray:none" />
        <path
           transform="matrix(0.28222223,0,0,0.28222223,31.963426,-150.87708)"
           inkscape:connector-curvature="0"
           id="path4540"
           d="m -2.3882091,805.23948 -9.8598899,1e-5"
           style="fill:none;stroke:#000000;stroke-width:0.18000001;stroke-miterlimit:4;stroke-opacity:1;stroke-dasharray:none" />
        <path
           transform="matrix(0.28222223,0,0,0.28222223,31.963426,-150.87708)"
           inkscape:connector-curvature="0"
           id="path4542"
           d="m -46.972092,805.23949 -11.951072,-1e-5"
           style="fill:none;stroke:#000000;stroke-width:0.18000001;stroke-miterlimit:4;stroke-opacity:1;stroke-dasharray:none" />
        <path
           transform="matrix(0.28222223,0,0,0.28222223,31.963426,-150.87708)"
           inkscape:connector-curvature="0"
           id="path4544"
           d="m -58.923163,805.23948 0,-1.1902"
           style="fill:none;stroke:#000000;stroke-width:0.18000001;stroke-miterlimit:4;stroke-opacity:1;stroke-dasharray:none" />
        <path
           transform="matrix(0.28222223,0,0,0.28222223,31.963426,-150.87708)"
           inkscape:connector-curvature="0"
           id="path4546"
           d="m -58.923163,790.9173 5e-6,-4.57781"
           style="fill:none;stroke:#000000;stroke-width:0.18000001;stroke-miterlimit:4;stroke-opacity:1;stroke-dasharray:none" />
        <path
           transform="matrix(0.28222223,0,0,0.28222223,31.963426,-150.87708)"
           inkscape:connector-curvature="0"
           id="path4548"
           d="m -77.82316,786.33949 10e-7,-4.26103"
           style="fill:none;stroke:#000000;stroke-width:0.18000001;stroke-miterlimit:4;stroke-opacity:1;stroke-dasharray:none" />
        <path
           transform="matrix(0.28222223,0,0,0.28222223,31.963426,-150.87708)"
           inkscape:connector-curvature="0"
           id="path4550"
           d="m -77.823159,753.79419 -10e-7,-3.5564"
           style="fill:none;stroke:#000000;stroke-width:0.18000001;stroke-miterlimit:4;stroke-opacity:1;stroke-dasharray:none" />
        <path
           transform="matrix(0.28222223,0,0,0.28222223,31.963426,-150.87708)"
           inkscape:connector-curvature="0"
           id="path4552"
           d="m -58.923158,750.23779 -5e-6,-1.99944"
           style="fill:none;stroke:#000000;stroke-width:0.18000001;stroke-miterlimit:4;stroke-opacity:1;stroke-dasharray:none" />
        <path
           transform="matrix(0.28222223,0,0,0.28222223,31.963426,-150.87708)"
           inkscape:connector-curvature="0"
           id="path4554"
           d="m -58.923163,733.59114 -10e-7,-2.25335 8.668076,0"
           style="fill:none;stroke:#000000;stroke-width:0.18000001;stroke-miterlimit:4;stroke-opacity:1;stroke-dasharray:none" />
        <path
           transform="matrix(0.28222223,0,0,0.28222223,31.963426,-150.87708)"
           inkscape:connector-curvature="0"
           id="path4556"
           d="m -2.3882091,731.33779 -5.9455483,0"
           style="fill:none;stroke:#000000;stroke-width:0.18000001;stroke-miterlimit:4;stroke-opacity:1;stroke-dasharray:none" />
        <path
           transform="matrix(0.28222223,0,0,0.28222223,31.963426,-150.87708)"
           inkscape:connector-curvature="0"
           id="path4560"
           d="m -50.255087,731.33779 41.9213296,0"
           style="fill:none;stroke:#0000ff;stroke-width:0.18000001;stroke-miterlimit:4;stroke-opacity:1;stroke-dasharray:none" />
        <path
           transform="matrix(0.28222223,0,0,0.28222223,31.963426,-150.87708)"
           inkscape:connector-curvature="0"
           id="path4562"
           d="m -58.923162,733.59114 0,14.64721"
           style="fill:none;stroke:#0000ff;stroke-width:0.18000001;stroke-miterlimit:4;stroke-opacity:1;stroke-dasharray:none" />
        <path
           transform="matrix(0.28222223,0,0,0.28222223,31.963426,-150.87708)"
           inkscape:connector-curvature="0"
           id="path4564"
           d="m -77.823158,753.79419 0,28.28427"
           style="fill:none;stroke:#0000ff;stroke-width:0.18000001;stroke-miterlimit:4;stroke-opacity:1;stroke-dasharray:none" />
        <path
           transform="matrix(0.28222223,0,0,0.28222223,31.963426,-150.87708)"
           inkscape:connector-curvature="0"
           id="path4566"
           d="m -58.923162,790.9173 0,13.13198"
           style="fill:none;stroke:#0000ff;stroke-width:0.18000001;stroke-miterlimit:4;stroke-opacity:1;stroke-dasharray:none" />
        <path
           transform="matrix(0.28222223,0,0,0.28222223,31.963426,-150.87708)"
           inkscape:connector-curvature="0"
           id="path4568"
           d="m -46.972091,805.23949 34.723992,0"
           style="fill:none;stroke:#0000ff;stroke-width:0.18000001;stroke-miterlimit:4;stroke-opacity:1;stroke-dasharray:none" />
        <path
           transform="matrix(0.28222223,0,0,0.28222223,31.963426,-150.87708)"
           inkscape:connector-curvature="0"
           id="path4570"
           d="m 16.5118,814.65588 -1e-6,-22.72843"
           style="fill:none;stroke:#0000ff;stroke-width:0.18000001;stroke-miterlimit:4;stroke-opacity:1;stroke-dasharray:none" />
        <path
           transform="matrix(0.28222223,0,0,0.28222223,31.963426,-150.87708)"
           inkscape:connector-curvature="0"
           id="path4572"
           d="m 16.5118,738.6419 0,-64.14468"
           style="fill:none;stroke:#0000ff;stroke-width:0.18000001;stroke-miterlimit:4;stroke-opacity:1;stroke-dasharray:none" />
        <path
           transform="matrix(0.28222223,0,0,0.28222223,31.963426,-150.87708)"
           inkscape:connector-curvature="0"
           id="path4574"
           d="m -58.923157,750.23779 56.5349479,0 3.6e-6,36.10169 -56.5349515,10e-6 0,-36.1017"
           style="fill:none;stroke:#0000ff;stroke-width:0.18000001;stroke-miterlimit:4;stroke-opacity:1;stroke-dasharray:none" />
      </g>
    </g>
  </g>
</svg>
